<?xml version="1.0" standalone="no"?>
<!DOCTYPE svg PUBLIC "-//W3C//DTD SVG 20010904//EN"
 "http://www.w3.org/TR/2001/REC-SVG-20010904/DTD/svg10.dtd">
<svg version="1.0" xmlns="http://www.w3.org/2000/svg"
 width="245.000000pt" height="300.000000pt" viewBox="0 0 245.000000 300.000000"
 preserveAspectRatio="xMidYMid meet">

<g transform="translate(0.000000,300.000000) scale(0.100000,-0.100000)"
fill="#000000" stroke="none">
<path d="M875 2306 c-58 -26 -126 -99 -169 -177 -38 -71 -29 -61 33 33 69 106
160 168 227 155 13 -2 24 0 24 4 0 17 -66 9 -115 -15z"/>
<path d="M1464 2316 c-5 -13 31 -96 41 -96 3 0 -4 18 -15 40 -25 50 -25 58 3
63 l22 4 -23 2 c-12 0 -25 -5 -28 -13z"/>
<path d="M1578 2294 c55 -27 107 -80 149 -151 14 -24 27 -43 30 -43 12 0 -53
99 -91 138 -40 42 -102 82 -128 82 -6 0 11 -12 40 -26z"/>
<path d="M962 2259 c-12 -21 -21 -39 -18 -39 7 0 49 71 44 75 -2 2 -14 -14
-26 -36z"/>
<path d="M1159 2243 c-13 -16 -12 -17 4 -4 12 10 21 11 28 4 27 -27 2 -49
-121 -110 -69 -35 -120 -63 -114 -63 22 0 237 115 248 133 8 12 8 22 0 34 -15
24 -29 26 -45 6z"/>
<path d="M1254 2239 c-14 -15 -16 -24 -8 -37 11 -17 180 -112 199 -112 6 0
-35 24 -89 53 -55 29 -102 59 -104 65 -2 7 2 19 8 28 11 13 15 12 34 -3 l21
-18 -19 23 c-11 12 -20 22 -21 22 -1 0 -10 -9 -21 -21z"/>
<path d="M563 2225 c-52 -23 -61 -37 -45 -63 6 -9 24 -11 66 -6 l57 7 -3 40
c-2 22 -7 42 -13 43 -5 2 -34 -8 -62 -21z"/>
<path d="M1816 2233 c-3 -8 -6 -25 -6 -37 0 -20 8 -25 57 -35 45 -9 58 -8 65
1 15 25 9 31 -74 69 -32 15 -37 15 -42 2z"/>
<path d="M1218 2152 c-4 -12 -2 -22 3 -22 11 0 12 -60 1 -76 -4 -6 -14 -13
-22 -16 -12 -4 -10 -7 7 -16 55 -30 78 26 41 101 -21 44 -25 48 -30 29z"/>
<path d="M1470 2080 c8 -5 20 -10 25 -10 6 0 3 5 -5 10 -8 5 -19 10 -25 10 -5
0 -3 -5 5 -10z"/>
<path d="M600 2072 c0 -7 -7 -12 -16 -12 -10 0 -14 -5 -10 -16 4 -9 2 -13 -5
-8 -7 4 -10 1 -7 -6 6 -19 38 -21 38 -4 0 9 4 13 9 9 18 -10 23 17 7 33 -10
11 -16 12 -16 4z"/>
<path d="M1181 2064 c0 -11 3 -14 6 -6 3 7 2 16 -1 19 -3 4 -6 -2 -5 -13z"/>
<path d="M1842 2068 c-14 -14 -16 -42 -2 -33 6 3 10 -1 10 -9 0 -10 9 -16 21
-16 15 0 20 5 17 23 -2 12 -7 21 -13 19 -5 -2 -12 4 -15 13 -4 12 -8 13 -18 3z"/>
<path d="M758 2063 c7 -3 16 -2 19 1 4 3 -2 6 -13 5 -11 0 -14 -3 -6 -6z"/>
<path d="M1676 2055 c-3 -8 -1 -15 3 -15 5 0 11 7 15 15 3 8 1 15 -3 15 -5 0
-11 -7 -15 -15z"/>
<path d="M1558 2053 c7 -3 16 -2 19 1 4 3 -2 6 -13 5 -11 0 -14 -3 -6 -6z"/>
<path d="M770 2045 c0 -5 5 -17 10 -25 5 -8 10 -10 10 -5 0 6 -5 17 -10 25 -5
8 -10 11 -10 5z"/>
<path d="M452 2008 c-19 -19 -14 -38 10 -38 19 0 20 -2 6 -12 -19 -16 -30 -68
-14 -68 6 0 25 9 41 20 39 26 48 25 40 -2 -6 -17 -4 -20 9 -15 10 4 14 3 11
-2 -3 -5 -1 -12 4 -15 9 -6 26 -74 22 -90 -1 -4 3 -14 10 -22 6 -7 8 -18 4
-24 -10 -16 23 -24 37 -8 16 16 40 76 42 103 0 11 4 25 8 31 4 5 7 33 6 61 0
49 -1 52 -24 50 -14 -1 -29 -9 -34 -17 -8 -13 -10 -12 -10 3 0 18 -24 21 -70
8 -20 -5 -30 -1 -48 21 -27 31 -33 33 -50 16z"/>
<path d="M1961 2006 c-6 -7 -9 -21 -5 -29 5 -13 1 -15 -18 -11 -12 3 -57 7
-99 9 l-77 4 5 -42 c7 -75 35 -182 51 -199 19 -22 46 -24 38 -3 -3 8 1 20 8
27 7 7 13 20 14 28 3 48 11 73 29 93 11 12 18 28 16 35 -7 18 8 15 37 -8 14
-11 31 -20 38 -20 19 0 15 57 -5 69 -16 9 -16 10 5 11 24 0 29 19 10 38 -16
16 -33 15 -47 -2z"/>
<path d="M1152 1973 c-18 -2 -36 -11 -39 -19 -4 -11 -14 -13 -33 -9 -17 4 -52
-3 -93 -18 -122 -44 -235 -125 -323 -230 l-49 -58 -82 3 c-45 2 -85 7 -90 11
-4 5 -9 40 -10 79 -1 38 -4 72 -7 76 -3 3 -6 30 -6 59 l0 54 -37 -6 c-92 -15
-83 7 -83 -195 0 -357 62 -646 200 -937 l58 -123 -36 -10 c-20 -5 -42 -10 -48
-10 -6 0 -29 -7 -50 -16 l-38 -16 32 -25 c39 -30 40 -40 7 -53 -14 -5 -25 -14
-25 -20 0 -23 110 -228 125 -234 26 -10 113 -7 120 4 3 6 2 10 -3 10 -5 0 -14
10 -20 22 l-11 23 0 -23 c-1 -38 -34 -23 -46 21 -6 21 -14 34 -19 30 -5 -4 -5
3 -1 16 5 16 4 21 -4 17 -7 -5 -9 -1 -5 9 5 13 9 13 22 3 9 -7 13 -8 9 -2 -4
6 2 19 13 29 11 10 20 25 19 34 0 11 -3 10 -11 -6 -10 -20 -46 -38 -57 -28 -2
3 -6 38 -9 80 l-5 75 29 1 c19 0 24 3 14 7 -22 10 -18 45 6 59 12 7 54 20 95
29 41 10 67 19 59 21 -14 3 -116 197 -108 206 1 2 -5 12 -15 22 -10 10 -16 26
-14 37 3 10 1 16 -4 12 -5 -3 -9 6 -9 20 0 14 -4 27 -9 31 -9 5 -41 100 -46
135 -1 8 -8 29 -14 45 -7 17 -13 44 -13 60 0 17 -4 35 -8 40 -8 11 -26 119
-29 170 -1 17 -3 39 -4 50 -2 18 5 20 88 25 84 5 135 21 135 43 0 13 27 37 42
37 10 0 10 2 -1 9 -11 7 -7 13 17 25 17 9 33 24 36 34 8 25 93 85 108 76 7 -4
8 -3 4 4 -9 14 31 38 70 41 8 0 12 6 9 11 -3 6 1 11 9 11 29 3 34 4 42 12 4 4
17 7 29 7 13 0 28 6 34 13 8 10 38 13 113 11 84 -1 91 -1 38 5 -56 6 -61 8
-37 15 27 8 103 2 157 -12 l25 -6 -30 -8 c-20 -5 -13 -5 19 -2 37 4 46 3 41
-7 -6 -9 -2 -11 13 -7 12 3 21 3 20 -1 -2 -21 4 -30 18 -24 13 5 13 7 2 14 -7
5 -9 9 -5 9 14 0 50 -21 76 -44 13 -11 20 -14 16 -6 -7 11 -3 10 15 -3 14 -10
33 -20 43 -24 9 -3 17 -9 17 -13 0 -4 11 -12 25 -18 17 -8 23 -16 18 -28 -4
-12 -3 -15 6 -10 8 5 35 -15 73 -53 34 -34 58 -61 54 -61 -4 0 6 -11 22 -25
27 -23 38 -25 121 -25 103 0 101 3 75 -85 -8 -30 -14 -60 -13 -67 1 -7 1 -24
0 -37 -1 -19 -4 -21 -15 -11 -13 10 -13 7 -3 -19 9 -26 8 -40 -5 -79 -9 -26
-19 -63 -23 -82 -4 -19 -10 -39 -13 -45 -4 -5 -7 -14 -9 -20 -1 -5 -4 -21 -7
-34 -3 -14 -11 -28 -17 -31 -6 -4 -10 -10 -9 -14 4 -14 -24 -94 -32 -90 -4 3
-5 -3 -1 -12 4 -12 3 -15 -5 -10 -7 4 -10 2 -7 -6 7 -17 -53 -141 -64 -134 -5
3 -8 -6 -8 -20 0 -40 -28 -62 -81 -62 -26 0 -52 -1 -58 -1 -16 -1 -44 -63 -45
-98 0 -27 -1 -27 -9 -6 -5 13 -11 23 -12 23 -2 0 -3 -27 -3 -61 0 -48 -4 -63
-19 -75 -11 -8 -15 -14 -9 -14 7 0 15 5 18 10 11 17 37 -11 31 -33 -6 -25 3
-49 17 -40 6 3 7 1 3 -5 -4 -7 -25 -12 -46 -12 -36 0 -70 -19 -70 -40 0 -5
-10 -10 -22 -12 -13 -2 -22 -9 -20 -17 4 -19 -20 -33 -31 -18 -6 9 -7 8 -6 -3
3 -27 -1 -40 -12 -40 -5 0 -8 4 -5 8 2 4 -3 8 -13 8 -9 0 -17 -8 -17 -17 0
-10 4 -15 8 -13 4 3 8 1 8 -5 0 -5 -9 -13 -20 -16 -11 -3 -20 -11 -20 -17 0
-6 -15 -8 -36 -6 -33 4 -34 3 -18 -10 18 -13 18 -15 -11 -38 -38 -30 -53 -30
-89 1 -16 14 -33 25 -38 25 -5 0 -13 11 -20 25 -6 13 -15 22 -19 19 -4 -2 -26
12 -48 33 -34 31 -38 39 -28 52 10 14 10 14 -4 4 -13 -11 -19 -10 -33 5 -9 10
-13 22 -9 26 5 4 2 6 -6 4 -7 -1 -16 3 -18 10 -3 7 4 12 18 12 12 0 20 3 17 6
-10 9 -211 5 -220 -4 -21 -21 280 -277 398 -339 l51 -26 48 27 c94 52 210 142
314 244 l106 102 75 -15 c122 -25 135 -29 138 -53 3 -18 -2 -22 -22 -22 -18 0
-26 5 -26 18 0 11 -7 6 -20 -16 -11 -18 -20 -35 -20 -37 0 -7 59 -6 114 1 46
7 46 7 81 81 19 41 35 79 35 84 0 5 7 21 16 34 19 29 14 50 -16 58 -28 7 -68
-54 -92 -143 l-18 -65 3 52 c2 29 0 50 -4 47 -4 -2 -10 0 -14 5 -3 6 3 8 13 6
15 -2 22 6 32 34 7 21 10 46 7 57 -3 12 -5 8 -6 -12 0 -17 -10 -39 -21 -49
-19 -17 -21 -17 -40 0 -11 10 -20 32 -21 49 -1 31 -1 31 -11 -6 -13 -49 -35
-49 -43 0 -13 77 -17 92 -25 92 -4 0 -10 -7 -14 -15 -3 -8 -1 -15 4 -15 6 0
10 -7 10 -15 0 -8 -4 -15 -10 -15 -5 0 -10 -7 -10 -15 0 -8 7 -15 15 -15 17 0
19 -9 7 -27 -4 -7 -17 -10 -29 -7 -19 5 -20 11 -16 72 6 91 6 91 45 83 30 -6
33 -10 38 -51 l6 -45 8 43 c5 26 13 42 22 42 8 0 14 -5 14 -10 0 -6 8 -5 19 2
25 16 50 -4 52 -41 2 -25 2 -25 6 -2 3 14 -3 35 -14 50 -11 14 -22 34 -26 44
-3 9 -13 17 -22 17 -8 0 -15 4 -15 9 0 4 25 61 56 125 129 273 187 537 199
918 l6 187 -28 7 c-16 3 -42 10 -60 14 l-31 8 -7 -107 c-8 -110 -18 -146 -38
-136 -7 4 -4 0 6 -8 35 -29 20 -37 -68 -37 l-86 0 -92 93 c-51 51 -120 110
-153 130 -87 52 -190 89 -226 82 -21 -5 -33 -2 -41 9 -13 17 -122 28 -185 19z
m485 -1375 l7 -33 6 29 c3 16 11 31 18 34 9 3 12 -17 12 -78 0 -71 -2 -81 -17
-78 -9 2 -21 19 -27 38 l-10 35 -4 -38 c-2 -24 -8 -37 -15 -34 -7 2 -12 11
-11 20 0 10 1 44 2 77 2 46 5 60 17 60 9 0 18 -13 22 -32z m80 -38 c-4 -35 -3
-60 3 -60 5 0 10 26 12 57 2 34 8 58 16 61 9 3 12 -14 12 -60 0 -70 -15 -102
-46 -96 -16 3 -19 13 -22 81 -2 67 -1 77 14 77 15 0 16 -8 11 -60z"/>
<path d="M1048 1838 c5 -5 16 -8 23 -6 8 3 3 7 -10 11 -17 4 -21 3 -13 -5z"/>
<path d="M1104 1815 c11 -8 27 -15 35 -15 11 0 10 4 -5 15 -10 8 -26 14 -34
14 -11 0 -10 -3 4 -14z"/>
<path d="M1380 1821 l-25 -7 27 -6 c16 -3 36 1 45 8 17 13 17 13 -2 13 -11 -1
-31 -4 -45 -8z"/>
<path d="M1178 1813 c7 -3 16 -2 19 1 4 3 -2 6 -13 5 -11 0 -14 -3 -6 -6z"/>
<path d="M1310 1783 c0 -19 5 -23 33 -23 28 -1 50 -7 122 -35 17 -7 18 -6 7 6
-14 15 -86 39 -119 39 -12 0 -27 8 -32 18 -9 15 -10 15 -11 -5z"/>
<path d="M1130 1779 c0 -5 5 -7 10 -4 6 3 10 8 10 11 0 2 -4 4 -10 4 -5 0 -10
-5 -10 -11z"/>
<path d="M850 1770 c0 -5 5 -10 11 -10 5 0 7 5 4 10 -3 6 -8 10 -11 10 -2 0
-4 -4 -4 -10z"/>
<path d="M1027 1766 c-33 -7 -62 -17 -65 -23 -4 -5 -14 -13 -22 -16 -13 -4
-12 -6 1 -6 9 -1 22 5 28 13 7 8 43 20 82 26 38 7 69 14 69 16 0 7 -31 3 -93
-10z"/>
<path d="M2007 1733 c-4 -3 -7 -11 -7 -17 0 -6 5 -5 12 2 6 6 9 14 7 17 -3 3
-9 2 -12 -2z"/>
<path d="M1530 1691 c0 -10 30 -24 37 -17 3 2 -5 9 -16 16 -12 6 -21 7 -21 1z"/>
<path d="M953 1573 c9 -2 25 -2 35 0 9 3 1 5 -18 5 -19 0 -27 -2 -17 -5z"/>
<path d="M1656 1572 c6 -4 23 -25 37 -47 34 -50 35 -38 2 15 -14 22 -31 40
-38 40 -8 0 -9 -3 -1 -8z"/>
<path d="M896 1548 c3 -5 10 -6 15 -3 13 9 11 12 -6 12 -8 0 -12 -4 -9 -9z"/>
<path d="M1030 1529 c0 -5 11 -9 25 -9 14 0 25 2 25 4 0 2 -11 6 -25 8 -14 3
-25 1 -25 -3z"/>
<path d="M745 1519 c-4 -6 -5 -12 -2 -15 2 -3 7 2 10 11 7 17 1 20 -8 4z"/>
<path d="M722 1450 c0 -14 2 -19 5 -12 2 6 2 18 0 25 -3 6 -5 1 -5 -13z"/>
<path d="M915 1440 c3 -5 8 -10 11 -10 2 0 4 5 4 10 0 6 -5 10 -11 10 -5 0 -7
-4 -4 -10z"/>
<path d="M818 1413 c18 -2 45 -2 60 0 15 2 0 4 -33 4 -33 0 -45 -2 -27 -4z"/>
<path d="M968 1413 c18 -2 45 -2 60 0 15 2 0 4 -33 4 -33 0 -45 -2 -27 -4z"/>
<path d="M1721 1415 c0 -5 6 -19 14 -29 8 -11 15 -15 15 -10 0 6 -7 19 -15 30
-8 10 -14 15 -14 9z"/>
<path d="M922 1355 c-1 -27 -5 -61 -7 -75 l-6 -25 11 25 c6 13 9 47 7 75 l-3
50 -2 -50z"/>
<path d="M704 1255 c0 -55 1 -76 3 -47 2 29 2 74 0 100 -2 26 -3 2 -3 -53z"/>
<path d="M1350 1326 c0 -2 8 -10 18 -17 15 -13 16 -12 3 4 -13 16 -21 21 -21
13z"/>
<path d="M1742 1290 c0 -19 2 -27 5 -17 2 9 2 25 0 35 -3 9 -5 1 -5 -18z"/>
<path d="M973 1293 c4 -3 1 -13 -6 -22 -11 -14 -10 -14 5 -2 16 12 16 31 1 31
-4 0 -3 -3 0 -7z"/>
<path d="M848 1283 c6 -2 18 -2 25 0 6 3 1 5 -13 5 -14 0 -19 -2 -12 -5z"/>
<path d="M921 1224 c0 -11 3 -14 6 -6 3 7 2 16 -1 19 -3 4 -6 -2 -5 -13z"/>
<path d="M952 1210 c0 -14 2 -19 5 -12 2 6 2 18 0 25 -3 6 -5 1 -5 -13z"/>
<path d="M912 1165 c-2 -18 2 -36 8 -40 6 -4 10 7 10 29 0 45 -15 55 -18 11z"/>
<path d="M1742 1174 c-1 -17 -4 -47 -7 -65 -5 -31 -5 -32 5 -9 6 13 9 42 7 65
-3 32 -4 34 -5 9z"/>
<path d="M1482 1148 c-20 -20 -14 -35 33 -74 25 -20 45 -42 45 -48 0 -6 9 -12
19 -12 37 0 8 85 -43 128 -25 21 -38 22 -54 6z"/>
<path d="M710 1124 c0 -10 5 -26 10 -34 8 -11 9 -7 4 15 -8 37 -14 45 -14 19z"/>
<path d="M817 1081 c-27 -41 -44 -126 -27 -136 6 -4 7 -11 4 -17 -4 -6 -2 -8
4 -4 11 7 109 -100 105 -115 -2 -5 1 -8 7 -6 5 1 25 -15 42 -36 l33 -38 69 3
70 3 -43 28 c-24 16 -40 31 -38 34 3 3 27 -10 54 -28 38 -27 61 -35 111 -39
34 -3 62 -3 62 0 0 3 -73 41 -161 85 -165 82 -255 133 -247 140 2 3 22 -4 43
-15 22 -11 45 -20 51 -20 7 0 14 -7 18 -15 3 -9 18 -15 36 -15 18 0 30 -5 30
-13 0 -11 16 -13 71 -9 59 4 74 1 81 -12 6 -11 23 -16 59 -16 45 0 48 -1 38
-19 -13 -20 -6 -51 11 -51 6 0 10 8 9 18 -3 34 2 38 46 37 44 0 45 0 47 -35 0
-19 1 -43 0 -52 -1 -10 5 -18 13 -18 11 0 15 12 15 47 0 44 1 45 18 30 10 -10
26 -17 35 -17 9 0 17 -6 17 -13 0 -19 -21 -37 -42 -37 -10 0 -18 -4 -18 -10 0
-5 21 -11 48 -11 26 -1 57 -3 68 -4 12 -1 32 4 45 11 13 7 18 13 11 14 -7 0
-10 5 -6 11 11 18 -17 170 -35 188 -9 9 -25 38 -35 64 -10 26 -26 53 -37 61
-11 7 -19 20 -17 27 2 8 -5 14 -17 14 -12 0 -19 -6 -17 -14 2 -8 -2 -27 -9
-43 -9 -22 -9 -31 1 -43 10 -12 10 -15 -4 -15 -9 0 -16 4 -16 9 0 14 -62 71
-77 71 -8 0 -11 -5 -8 -10 4 -6 2 -16 -3 -23 -5 -7 -12 -25 -16 -40 -6 -25 -4
-28 16 -25 18 2 23 -2 25 -22 2 -28 -18 -80 -30 -80 -5 0 -5 5 -1 12 4 6 -3 4
-17 -5 -31 -22 -51 -21 -81 3 -22 17 -35 19 -90 13 -58 -5 -66 -4 -70 13 -3
11 -21 24 -44 31 -21 6 -52 17 -68 23 -28 10 -28 11 -10 25 18 14 18 15 -7 9
-25 -5 -26 -3 -32 40 -7 50 -32 96 -52 96 -7 0 -24 -17 -38 -39z m660 -153
c-3 -7 -5 -2 -5 12 0 14 2 19 5 13 2 -7 2 -19 0 -25z m-541 -55 c-6 -6 -76 40
-76 50 0 4 18 -5 40 -19 22 -15 38 -29 36 -31z m602 26 c-3 -8 -7 -3 -11 10
-4 17 -3 21 5 13 5 -5 8 -16 6 -23z m41 -14 l0 -20 -9 20 c-5 11 -9 27 -9 35
-1 13 0 13 9 0 5 -8 9 -24 9 -35z m-9 -121 c6 -14 10 -26 10 -28 0 -1 -13 -1
-30 2 -31 4 -34 9 -24 36 9 24 33 19 44 -10z"/>
<path d="M1035 1110 c6 -10 3 -12 -14 -7 -14 3 -24 0 -28 -9 -3 -8 -11 -14
-18 -14 -13 0 -31 -37 -23 -46 7 -6 98 54 98 65 0 5 -5 13 -12 17 -7 5 -8 3
-3 -6z"/>
<path d="M1718 1050 c-7 -24 -3 -38 8 -28 3 4 4 17 2 30 l-3 23 -7 -25z"/>
<path d="M735 1010 c3 -5 8 -10 11 -10 2 0 4 5 4 10 0 6 -5 10 -11 10 -5 0 -7
-4 -4 -10z"/>
<path d="M1701 984 c0 -11 3 -14 6 -6 3 7 2 16 -1 19 -3 4 -6 -2 -5 -13z"/>
<path d="M1696 944 c-4 -9 -4 -19 -1 -22 2 -3 7 3 11 12 4 9 4 19 1 22 -2 3
-7 -3 -11 -12z"/>
<path d="M762 910 c0 -14 2 -19 5 -12 2 6 2 18 0 25 -3 6 -5 1 -5 -13z"/>
<path d="M1681 894 c0 -11 3 -14 6 -6 3 7 2 16 -1 19 -3 4 -6 -2 -5 -13z"/>
<path d="M770 859 c0 -11 4 -18 10 -14 5 3 7 12 3 20 -7 21 -13 19 -13 -6z"/>
<path d="M800 800 c0 -22 23 -80 32 -80 4 0 0 19 -9 43 -19 49 -23 55 -23 37z"/>
<path d="M1636 784 c-4 -9 -4 -19 -1 -22 2 -3 7 3 11 12 4 9 4 19 1 22 -2 3
-7 -3 -11 -12z"/>
<path d="M778 713 c6 -2 18 -2 25 0 6 3 1 5 -13 5 -14 0 -19 -2 -12 -5z"/>
<path d="M1522 575 c0 -16 2 -22 5 -12 2 9 2 23 0 30 -3 6 -5 -1 -5 -18z"/>
<path d="M1928 554 c-5 -4 -8 -25 -8 -48 0 -28 3 -37 11 -29 6 6 9 27 7 48 -2
20 -6 33 -10 29z"/>
<path d="M551 510 c0 -32 2 -40 9 -29 5 9 6 28 0 45 -8 27 -8 26 -9 -16z"/>
<path d="M255 410 c7 -25 35 -91 61 -144 8 -16 14 -35 14 -41 0 -14 45 -29 60
-20 8 5 2 45 -7 45 -2 0 -13 -5 -24 -10 -17 -10 -19 -7 -19 22 0 41 -39 126
-70 153 l-23 20 8 -25z"/>
<path d="M43 399 c-42 -12 -42 -19 0 -19 23 0 34 5 34 15 0 8 -1 15 -1 14 -1
0 -16 -5 -33 -10z"/>
<path d="M2175 373 c-10 -15 -28 -52 -41 -82 -14 -35 -28 -55 -36 -52 -46 14
-54 12 -66 -15 -7 -14 -11 -28 -9 -30 2 -2 41 1 88 6 87 10 109 23 109 62 0
11 7 33 16 49 8 17 13 37 10 45 -3 7 -1 16 4 19 21 13 9 25 -24 25 -26 0 -38
-6 -51 -27z"/>
<path d="M1075 370 c-7 -12 12 -12 40 0 18 8 17 9 -7 9 -15 1 -30 -3 -33 -9z"/>
<path d="M1243 373 c9 -2 23 -2 30 0 6 3 -1 5 -18 5 -16 0 -22 -2 -12 -5z"/>
<path d="M1404 358 l-19 -23 25 20 c14 11 27 21 29 22 2 2 0 3 -6 3 -5 0 -18
-10 -29 -22z"/>
<path d="M1458 373 c6 -2 18 -2 25 0 6 3 1 5 -13 5 -14 0 -19 -2 -12 -5z"/>
<path d="M1060 341 c0 -5 5 -13 10 -16 6 -3 10 -2 10 4 0 5 -4 13 -10 16 -5 3
-10 2 -10 -4z"/>
<path d="M1300 250 c-9 -6 -10 -10 -3 -10 6 0 15 5 18 10 8 12 4 12 -15 0z"/>
<path d="M1326 233 c-6 -14 -5 -15 5 -6 7 7 10 15 7 18 -3 3 -9 -2 -12 -12z"/>
<path d="M115 210 c-21 -40 -19 -43 15 -25 26 13 29 19 20 35 -14 26 -17 25
-35 -10z"/>
</g>
</svg>
